<svg xmlns="http://www.w3.org/2000/svg" width="592" height="388" viewBox="0 0 592 388"><defs><style>.a{fill:rgba(107,61,228,0.11);}.b{fill:#e86fa8;}.c{fill:#ff9ac8;}.d{fill:#3a484a;}.e{fill:#d4d2d3;}.f{fill:#bab8b9;}.g{fill:#7694d8;}.h{fill:#23396a;}.i{fill:rgba(53,64,82,0.08);}</style></defs><g transform="translate(-79 -178)"><rect class="a" width="592" height="356" transform="translate(79 210)"/><g transform="translate(175.079 178.072)"><path class="b" d="M436.849,315.669H423.57a8.67,8.67,0,0,1,0-17.34h13.279a39.165,39.165,0,0,0,34.759-21.012A15.881,15.881,0,0,0,457.47,254.04H444.66a8.67,8.67,0,1,1,0-17.34h12.81a33.237,33.237,0,0,1,29.447,48.662A56.385,56.385,0,0,1,436.849,315.669Z" transform="translate(-90.84 -51.83)"/><path class="c" d="M421.2,218.235a14.138,14.138,0,0,0-14.06-13.435H284.2a14.138,14.138,0,0,0-14.06,13.435c-1.172,24.683,1.015,77.719,37.571,109.432a21.531,21.531,0,0,0,14.06,5.155h47.881a21.531,21.531,0,0,0,14.06-5.155C420.186,295.876,422.451,242.918,421.2,218.235Z" transform="translate(-59.102 -44.847)"/><g transform="translate(249.075 211.583)"><path class="d" d="M324.914,288.631a6.017,6.017,0,0,1-6.014-6.014v-5.7a6.014,6.014,0,1,1,12.029,0v5.7A5.968,5.968,0,0,1,324.914,288.631Z" transform="translate(-318.9 -270.9)"/><path class="d" d="M405.514,288.631a6.017,6.017,0,0,1-6.014-6.014v-5.7a6.014,6.014,0,1,1,12.029,0v5.7A5.92,5.92,0,0,1,405.514,288.631Z" transform="translate(-336.544 -270.9)"/><path class="d" d="M362.54,294.443a18.507,18.507,0,0,1-14.06-6.249,6.033,6.033,0,1,1,9.061-7.967,6.807,6.807,0,0,0,10,0,6.033,6.033,0,1,1,9.061,7.967A18.507,18.507,0,0,1,362.54,294.443Z" transform="translate(-325.048 -272.495)"/></g><path class="e" d="M364.383,123.715a5.686,5.686,0,0,1-3.905-1.484,14.611,14.611,0,0,1-5.077-11.17,14.879,14.879,0,0,1,5.077-11.17,2.669,2.669,0,0,0,0-4.062A14.611,14.611,0,0,1,355.4,84.66a14.879,14.879,0,0,1,5.077-11.17,6.036,6.036,0,0,1,7.889,9.139,2.669,2.669,0,0,0,0,4.062,14.611,14.611,0,0,1,5.077,11.17,14.879,14.879,0,0,1-5.077,11.17,2.669,2.669,0,0,0,0,4.062,6.052,6.052,0,0,1-3.984,10.623Z" transform="translate(-77.815 -15.783)"/><g transform="translate(247.981 83.974)"><path class="f" d="M326.483,159.215a5.686,5.686,0,0,1-3.906-1.484,14.611,14.611,0,0,1-5.077-11.17,14.879,14.879,0,0,1,5.077-11.17,2.669,2.669,0,0,0,0-4.062,14.611,14.611,0,0,1-5.077-11.17,14.879,14.879,0,0,1,5.077-11.17,6.036,6.036,0,0,1,7.889,9.139,2.669,2.669,0,0,0,0,4.062,14.611,14.611,0,0,1,5.077,11.17,14.879,14.879,0,0,1-5.077,11.17,2.669,2.669,0,0,0,0,4.062,6.052,6.052,0,0,1-3.984,10.623Z" transform="translate(-317.5 -107.528)"/><path class="f" d="M402.283,159.215a5.686,5.686,0,0,1-3.905-1.484,14.611,14.611,0,0,1-5.077-11.17,14.879,14.879,0,0,1,5.077-11.17,2.669,2.669,0,0,0,0-4.062,14.611,14.611,0,0,1-5.077-11.17,14.879,14.879,0,0,1,5.077-11.17,6.036,6.036,0,0,1,7.889,9.139,2.669,2.669,0,0,0,0,4.062,14.611,14.611,0,0,1,5.077,11.17,14.879,14.879,0,0,1-5.077,11.17,2.669,2.669,0,0,0,0,4.062,6.052,6.052,0,0,1-3.984,10.623Z" transform="translate(-334.093 -107.528)"/></g><path class="b" d="M315.52,204.8H284.2a14.138,14.138,0,0,0-14.06,13.435c-.937,19.84.312,58.036,19.84,88.733a172.964,172.964,0,0,0,18.9-47.491A240.327,240.327,0,0,0,315.52,204.8Z" transform="translate(-59.103 -44.847)"/><path class="g" d="M60.414,180.594A17.659,17.659,0,0,1,77.989,163.8H231.631a17.659,17.659,0,0,1,17.575,16.794c1.484,30.853-1.25,97.09-46.944,136.77a26.7,26.7,0,0,1-17.575,6.483H124.854a26.848,26.848,0,0,1-17.575-6.483C61.664,277.684,58.852,211.447,60.414,180.594Z" transform="translate(-13.175 -35.872)"/><path class="h" d="M118.319,317.364c-45.694-39.68-48.428-105.917-46.944-136.77A17.659,17.659,0,0,1,88.95,163.8H64.814a17.659,17.659,0,0,0-17.575,16.794c-.234,4.14-.312,8.983-.312,14.294H41.615A41.68,41.68,0,0,0,4.669,255.813a70.392,70.392,0,0,0,62.644,37.961h6.093A118.409,118.409,0,0,0,94.183,317.52,26.7,26.7,0,0,0,111.758,324h24.136A27.685,27.685,0,0,1,118.319,317.364Zm-94.357-71.7a19.927,19.927,0,0,1,17.653-29.135H48.1c1.718,17.184,5.546,36.555,13.513,55.145A48.936,48.936,0,0,1,23.962,245.659Z" transform="translate(0 -35.872)"/><g transform="translate(96.292 194.009)"><path class="d" d="M230.014,267.537A6.017,6.017,0,0,1,224,261.522v-7.108a6.014,6.014,0,1,1,12.029,0v7.108A5.92,5.92,0,0,1,230.014,267.537Z" transform="translate(-145.343 -248.4)"/><path class="d" d="M129.314,267.537a6.017,6.017,0,0,1-6.014-6.014v-7.108a6.014,6.014,0,1,1,12.029,0v7.108A6.017,6.017,0,0,1,129.314,267.537Z" transform="translate(-123.3 -248.4)"/><path class="d" d="M176.262,274.837a21.71,21.71,0,0,1-16.481-7.342,6.033,6.033,0,1,1,9.061-7.967,9.78,9.78,0,0,0,7.42,3.2,9.9,9.9,0,0,0,7.42-3.2,6.033,6.033,0,1,1,9.061,7.967A21.982,21.982,0,0,1,176.262,274.837Z" transform="translate(-130.958 -250.389)"/></g><path class="f" d="M178.542,61.457a6.052,6.052,0,0,1-3.984-10.623,4.6,4.6,0,0,0,1.64-3.671,4.872,4.872,0,0,0-1.64-3.671,16.935,16.935,0,0,1,0-25.62A4.6,4.6,0,0,0,176.2,14.2a4.872,4.872,0,0,0-1.64-3.671,6.036,6.036,0,1,1,7.889-9.139,16.935,16.935,0,0,1,0,25.62,4.6,4.6,0,0,0-1.64,3.671,4.872,4.872,0,0,0,1.64,3.671,16.935,16.935,0,0,1,0,25.62A5.686,5.686,0,0,1,178.542,61.457Z" transform="translate(-36.946)"/><g transform="translate(94.808 34.608)"><path class="e" d="M225.942,105.857a6.052,6.052,0,0,1-3.984-10.623,4.6,4.6,0,0,0,1.64-3.671,4.872,4.872,0,0,0-1.64-3.671,16.935,16.935,0,0,1,0-25.62A4.6,4.6,0,0,0,223.6,58.6a4.872,4.872,0,0,0-1.64-3.671,6.036,6.036,0,0,1,7.889-9.139,16.935,16.935,0,0,1,0,25.62,4.6,4.6,0,0,0-1.64,3.671,4.872,4.872,0,0,0,1.64,3.671,16.935,16.935,0,0,1,0,25.62A5.686,5.686,0,0,1,225.942,105.857Z" transform="translate(-142.13 -44.328)"/><path class="e" d="M131.242,105.857a6.052,6.052,0,0,1-3.984-10.623,4.6,4.6,0,0,0,1.64-3.671,4.872,4.872,0,0,0-1.64-3.671,16.935,16.935,0,0,1,0-25.62A4.6,4.6,0,0,0,128.9,58.6a4.872,4.872,0,0,0-1.64-3.671,6.036,6.036,0,0,1,7.889-9.139,16.935,16.935,0,0,1,0,25.62,4.6,4.6,0,0,0-1.64,3.671,4.872,4.872,0,0,0,1.64,3.671,16.935,16.935,0,0,1,0,25.62A5.686,5.686,0,0,1,131.242,105.857Z" transform="translate(-121.4 -44.328)"/></g></g><ellipse class="i" cx="160" cy="10.5" rx="160" ry="10.5" transform="translate(215 502)"/></g></svg>